# xmcd CD database file
#
# Track frame offsets:
#	150
#	33685
#	63787
#	85517
#	115317
#	136272
#	158547
#	183367
#	209165
#	230065
#	255982
#	282127
#
# Disc length: 4155 seconds
#
# Revision: 0
# Processed by: cddbd v1.5.1PL0 Copyright (c) Steve Scherf et al.
# Submitted via: CDex 1.51
#
DISCID=a010390c
DTITLE=Luis Perico Ortiz - Éxitos Vol.1
DYEAR=1997
DGENRE=Salsa
TTITLE0=Bohemio
TTITLE1=Río abajo va
TTITLE2=Confesión
TTITLE3=Isleño
TTITLE4=Fiesta patronal
TTITLE5=Mi rosa blanca
TTITLE6=Fefita
TTITLE7=Y para qué
TTITLE8=Quiéreme
TTITLE9=Más amor
TTITLE10=No se va' poder
TTITLE11=Tin marín
EXTD=YEAR: 1997
EXTT0=
EXTT1=
EXTT2=
EXTT3=
EXTT4=
EXTT5=
EXTT6=
EXTT7=
EXTT8=
EXTT9=
EXTT10=
EXTT11=
PLAYORDER=
